<svg xmlns="http://www.w3.org/2000/svg" xmlns:xlink="http://www.w3.org/1999/xlink" width="1920" zoomAndPan="magnify" viewBox="0 0 1440 809.999993" height="1080" preserveAspectRatio="xMidYMid meet" version="1.0"><defs><clipPath id="74831c9af4"><path d="M 856 523 L 1373.027344 523 L 1373.027344 610.339844 L 856 610.339844 Z M 856 523 " clip-rule="nonzero"/></clipPath><clipPath id="70f8176500"><path d="M 935.261719 562.914062 C 837.128906 535.25 809.808594 647.855469 972.980469 596.683594 C 999.09375 611.179688 1029.308594 614.84375 1066.785156 599.363281 C 1107.222656 614.0625 1140.445312 611.917969 1168.417969 597.519531 C 1199.199219 608.335938 1230.347656 612.816406 1262.59375 598.761719 C 1281.089844 611.53125 1299.867188 608.964844 1318.808594 597.777344 C 1380.710938 610.75 1385.046875 582.203125 1354.632812 580.96875 C 1341.207031 560.304688 1332.414062 559.675781 1312.445312 566.832031 C 1307.769531 545.417969 1296.761719 538.640625 1279.613281 546.03125 C 1284.972656 512.714844 1270.902344 503.011719 1243.253906 509.8125 C 1248.863281 429.726562 1160.734375 419.097656 1118.71875 470.855469 C 1062.761719 448.832031 1024.875 470.992188 1032.757812 513.128906 C 1020.355469 513.191406 1010.296875 516.15625 1006.703125 527.132812 C 974.898438 525.683594 945.011719 535.476562 935.261719 562.914062 Z M 935.261719 562.914062 " clip-rule="evenodd"/></clipPath><clipPath id="86cfdb77c5"><path d="M 1215 372 L 1440 372 L 1440 502.691406 L 1215 502.691406 Z M 1215 372 " clip-rule="nonzero"/></clipPath><clipPath id="e5c64d38ba"><path d="M 1622.300781 397.371094 C 1721.28125 360.917969 1772.203125 519.558594 1613.1875 464.441406 C 1601.84375 492.292969 1581.835938 491.738281 1555.429688 470.214844 C 1534.71875 494.003906 1507.90625 501.085938 1473.671875 487.855469 C 1444.15625 512.570312 1414.523438 504.566406 1384.824219 475.910156 C 1351.695312 495.183594 1310.714844 480.953125 1275.636719 456.769531 C 1202.691406 479.832031 1196.207031 403.777344 1253.996094 387.789062 L 1291.828125 367.421875 C 1260.589844 274.886719 1382.082031 211.371094 1434.527344 288.476562 C 1452.027344 275.40625 1469.027344 275.691406 1485.652344 286.140625 C 1519.972656 231.210938 1605.382812 266.09375 1577.433594 342.542969 C 1611.675781 340.558594 1619.324219 361.390625 1622.300781 397.371094 Z M 1622.300781 397.371094 " clip-rule="evenodd"/></clipPath><clipPath id="a858bc87b9"><path d="M 1019 540 L 1440 540 L 1440 670.855469 L 1019 670.855469 Z M 1019 540 " clip-rule="nonzero"/></clipPath><clipPath id="a7840de397"><path d="M 1111.941406 565.539062 C 1012.960938 529.085938 962.039062 687.726562 1121.054688 632.609375 C 1132.398438 660.460938 1152.40625 659.90625 1178.8125 638.382812 C 1199.527344 662.171875 1226.335938 669.253906 1260.574219 656.023438 C 1290.085938 680.734375 1319.71875 672.734375 1349.417969 644.078125 C 1382.546875 663.351562 1423.527344 649.117188 1458.605469 624.9375 C 1531.550781 648 1538.035156 571.945312 1480.246094 555.957031 L 1442.414062 535.585938 C 1473.652344 443.054688 1352.160156 379.539062 1299.714844 456.640625 C 1282.21875 443.574219 1265.214844 443.859375 1248.589844 454.308594 C 1214.269531 399.378906 1128.863281 434.261719 1156.8125 510.710938 C 1122.566406 508.726562 1114.917969 529.558594 1111.941406 565.539062 Z M 1111.941406 565.539062 " clip-rule="evenodd"/></clipPath></defs><path fill="#ffffff" d="M 935.261719 562.914062 C 837.128906 535.25 809.808594 647.855469 972.980469 596.683594 C 999.09375 611.179688 1029.308594 614.84375 1066.785156 599.363281 C 1107.222656 614.0625 1140.445312 611.917969 1168.417969 597.519531 C 1199.199219 608.335938 1230.347656 612.816406 1262.59375 598.757812 C 1281.089844 611.53125 1299.867188 608.964844 1318.808594 597.777344 C 1380.710938 610.746094 1385.046875 582.203125 1354.632812 580.96875 C 1341.207031 560.304688 1332.414062 559.675781 1312.445312 566.832031 C 1307.769531 545.417969 1296.761719 538.640625 1279.613281 546.03125 C 1284.972656 512.714844 1270.902344 503.011719 1243.253906 509.8125 C 1248.863281 429.726562 1160.734375 419.097656 1118.71875 470.859375 C 1062.761719 448.832031 1024.875 470.992188 1032.757812 513.128906 C 1020.355469 513.191406 1010.296875 516.15625 1006.703125 527.132812 C 974.898438 525.683594 945.011719 535.476562 935.261719 562.914062 Z M 935.261719 562.914062 " fill-opacity="1" fill-rule="evenodd"/><g clip-path="url(#74831c9af4)"><g clip-path="url(#70f8176500)"><path fill="#f1e8e8" d="M 871.25 563.640625 C 872.421875 561.585938 871.367188 568.484375 872.320312 570.648438 C 880.511719 589.324219 898.070312 593.914062 917.019531 590.707031 C 933.328125 587.945312 951.367188 578.230469 968.015625 579.222656 C 986.007812 580.292969 997.324219 594.484375 1017.429688 590.648438 C 1032.101562 587.851562 1063.414062 561.234375 1063.570312 561.222656 C 1077.691406 560.25 1098.46875 582.902344 1127.949219 575.667969 C 1151.152344 569.972656 1151.949219 545.464844 1140.402344 528.976562 C 1139.921875 528.289062 1136.425781 524.355469 1137.632812 523.390625 C 1141.488281 520.308594 1161.355469 538.230469 1167.875 538.230469 C 1178.710938 538.230469 1189.621094 534.035156 1200.488281 533.292969 C 1200.816406 533.269531 1205.308594 532.9375 1205.175781 533.660156 C 1205.070312 534.242188 1202.992188 534.777344 1202.578125 534.929688 C 1188.269531 540.1875 1145.164062 558.949219 1178.066406 575.105469 C 1197.636719 584.714844 1218.527344 569.21875 1237.761719 566.839844 C 1251.414062 565.144531 1253 581.6875 1264.441406 585.570312 C 1279.976562 590.84375 1297.097656 585.746094 1313.011719 586.472656 C 1325.410156 587.039062 1335.472656 592.152344 1346.949219 596.007812 C 1355.476562 598.875 1400.589844 593.089844 1396.679688 607.632812 C 1392 625.011719 1273.957031 633.289062 1259.191406 634.152344 C 1152.753906 640.375 1040.300781 652.246094 935.007812 630.203125 C 899.484375 622.765625 837.769531 605.273438 832.113281 560.941406 " fill-opacity="1" fill-rule="evenodd"/></g></g><path fill="#ffffff" d="M 1622.300781 397.371094 C 1721.28125 360.917969 1772.203125 519.558594 1613.1875 464.441406 C 1601.84375 492.292969 1581.835938 491.738281 1555.429688 470.214844 C 1534.71875 494.003906 1507.90625 501.085938 1473.671875 487.855469 C 1444.15625 512.570312 1414.523438 504.566406 1384.824219 475.910156 C 1351.695312 495.183594 1310.714844 480.953125 1275.636719 456.769531 C 1202.691406 479.832031 1196.207031 403.777344 1253.996094 387.789062 L 1291.828125 367.421875 C 1260.589844 274.886719 1382.082031 211.371094 1434.527344 288.476562 C 1452.027344 275.40625 1469.027344 275.691406 1485.652344 286.140625 C 1519.972656 231.210938 1605.382812 266.09375 1577.433594 342.542969 C 1611.675781 340.558594 1619.324219 361.390625 1622.300781 397.371094 Z M 1622.300781 397.371094 " fill-opacity="1" fill-rule="evenodd"/><g clip-path="url(#86cfdb77c5)"><g clip-path="url(#e5c64d38ba)"><path fill="#f1e8e8" d="M 1670.242188 385.957031 C 1678.800781 395.246094 1689.710938 407.949219 1683.390625 421.703125 C 1667.441406 456.445312 1626.796875 433.035156 1600.980469 440.535156 C 1592.839844 442.894531 1592.910156 459.199219 1582.480469 462.675781 C 1566.640625 467.960938 1552.679688 455.242188 1537.683594 458.167969 C 1522.382812 461.144531 1516.933594 475.726562 1497.800781 473.472656 C 1473.488281 470.613281 1470.25 450.707031 1461.582031 448.183594 C 1445.894531 443.621094 1428.332031 450.546875 1411.523438 444.316406 C 1374.511719 430.597656 1406.726562 421.621094 1421.5 411.085938 C 1430.824219 404.429688 1437.890625 395.472656 1443.78125 385.742188 C 1445.089844 383.585938 1449.742188 377.582031 1448.550781 374.742188 C 1447.585938 372.425781 1437.898438 381.878906 1437.207031 382.484375 C 1428.652344 390 1419.703125 397.15625 1409.746094 402.765625 C 1389.320312 414.273438 1339.246094 414.363281 1322.566406 393.511719 C 1321.992188 392.792969 1324.066406 394.578125 1324.835938 395.082031 C 1332.714844 400.214844 1378.710938 422.15625 1369.78125 432.851562 C 1350.390625 456.054688 1315.488281 428.019531 1297.054688 428.3125 C 1285.90625 428.488281 1271.816406 438.808594 1260.226562 440.910156 C 1247.300781 443.257812 1198.074219 430.339844 1198.992188 449.085938 C 1201.378906 497.644531 1309.132812 514.523438 1340.046875 531.085938 C 1449.703125 589.832031 1764.742188 542.34375 1804.554688 416.535156 C 1814.074219 386.464844 1716.453125 352.507812 1670.242188 385.957031 Z M 1670.242188 385.957031 " fill-opacity="1" fill-rule="evenodd"/></g></g><path fill="#ffffff" d="M 1111.941406 565.539062 C 1012.960938 529.085938 962.039062 687.726562 1121.054688 632.609375 C 1132.398438 660.460938 1152.40625 659.90625 1178.8125 638.382812 C 1199.527344 662.171875 1226.335938 669.253906 1260.574219 656.023438 C 1290.085938 680.734375 1319.71875 672.734375 1349.417969 644.078125 C 1382.546875 663.351562 1423.527344 649.117188 1458.605469 624.9375 C 1531.550781 648 1538.035156 571.945312 1480.246094 555.957031 L 1442.414062 535.585938 C 1473.652344 443.054688 1352.160156 379.539062 1299.714844 456.640625 C 1282.21875 443.574219 1265.214844 443.859375 1248.589844 454.308594 C 1214.269531 399.378906 1128.863281 434.261719 1156.8125 510.710938 C 1122.566406 508.726562 1114.917969 529.558594 1111.941406 565.539062 Z M 1111.941406 565.539062 " fill-opacity="1" fill-rule="evenodd"/><g clip-path="url(#a858bc87b9)"><g clip-path="url(#a7840de397)"><path fill="#f1e8e8" d="M 1064.003906 554.125 C 1055.441406 563.414062 1044.535156 576.117188 1050.851562 589.871094 C 1066.800781 624.613281 1107.445312 601.203125 1133.261719 608.699219 C 1141.402344 611.0625 1141.332031 627.363281 1151.761719 630.84375 C 1167.601562 636.125 1181.5625 623.410156 1196.558594 626.332031 C 1211.859375 629.3125 1217.308594 643.890625 1236.441406 641.640625 C 1260.753906 638.777344 1263.992188 618.875 1272.660156 616.351562 C 1288.347656 611.785156 1305.910156 618.714844 1322.722656 612.484375 C 1359.730469 598.761719 1327.515625 589.789062 1312.742188 579.253906 C 1303.417969 572.597656 1296.355469 563.640625 1290.460938 553.910156 C 1289.152344 551.753906 1284.5 545.75 1285.691406 542.910156 C 1286.660156 540.59375 1296.347656 550.042969 1297.035156 550.652344 C 1305.589844 558.167969 1314.539062 565.324219 1324.496094 570.933594 C 1344.925781 582.441406 1394.996094 582.53125 1411.675781 561.679688 C 1412.25 560.957031 1410.175781 562.746094 1409.40625 563.25 C 1401.527344 568.382812 1355.53125 590.324219 1364.464844 601.019531 C 1383.855469 624.21875 1418.753906 596.183594 1437.1875 596.480469 C 1448.335938 596.65625 1462.425781 606.976562 1474.019531 609.078125 C 1486.941406 611.425781 1536.171875 598.507812 1535.25 617.253906 C 1532.863281 665.8125 1425.109375 682.691406 1394.195312 699.253906 C 1284.539062 757.996094 969.5 710.511719 929.6875 584.703125 C 920.171875 554.632812 1017.789062 520.675781 1064.003906 554.125 Z M 1064.003906 554.125 " fill-opacity="1" fill-rule="evenodd"/></g></g></svg>